<mxfile host="app.diagrams.net" modified="2023-08-24T11:07:44.884Z" agent="Mozilla/5.0 (Windows NT 10.0; Win64; x64) AppleWebKit/537.36 (KHTML, like Gecko) Chrome/116.0.0.0 Safari/537.36 Edg/116.0.1938.54" etag="VPnPQ7rb_jtrBrBHeRzJ" version="21.6.8" type="github">
  <diagram name="Page-1" id="y7Z4M2T_gE_CncvvF34J">
    <mxGraphModel dx="2038" dy="1726" grid="1" gridSize="10" guides="1" tooltips="1" connect="1" arrows="1" fold="1" page="1" pageScale="1" pageWidth="850" pageHeight="1100" math="0" shadow="0">
      <root>
        <mxCell id="0" />
        <mxCell id="1" parent="0" />
        <mxCell id="wSfpsm_N3FbQUYPhxMbK-66" value="" style="whiteSpace=wrap;html=1;aspect=fixed;fillColor=none;dashed=1;" vertex="1" parent="1">
          <mxGeometry x="-295" y="700" width="610" height="610" as="geometry" />
        </mxCell>
        <mxCell id="wSfpsm_N3FbQUYPhxMbK-30" value="" style="shape=cylinder3;whiteSpace=wrap;html=1;boundedLbl=1;backgroundOutline=1;size=15;rotation=90;" vertex="1" parent="1">
          <mxGeometry x="281.25" y="210" width="125" height="587.5" as="geometry" />
        </mxCell>
        <mxCell id="wSfpsm_N3FbQUYPhxMbK-36" value="" style="shape=callout;whiteSpace=wrap;html=1;perimeter=calloutPerimeter;dashed=1;fillColor=none;" vertex="1" parent="1">
          <mxGeometry x="-10" y="-150" width="860" height="610" as="geometry" />
        </mxCell>
        <mxCell id="wSfpsm_N3FbQUYPhxMbK-15" value="uvs - 0.0.1" style="text;strokeColor=none;align=center;fillColor=none;html=1;verticalAlign=middle;whiteSpace=wrap;rounded=0;" vertex="1" parent="1">
          <mxGeometry x="160" y="110" width="120" height="30" as="geometry" />
        </mxCell>
        <mxCell id="wSfpsm_N3FbQUYPhxMbK-22" value="e4k - 0.4.0" style="text;strokeColor=none;align=center;fillColor=none;html=1;verticalAlign=middle;whiteSpace=wrap;rounded=0;" vertex="1" parent="1">
          <mxGeometry x="160" y="260" width="120" height="30" as="geometry" />
        </mxCell>
        <mxCell id="wSfpsm_N3FbQUYPhxMbK-29" value="" style="image;sketch=0;aspect=fixed;html=1;points=[];align=center;fontSize=12;image=img/lib/mscae/Azure_Pipelines.svg;" vertex="1" parent="1">
          <mxGeometry x="565" y="446.25" width="30" height="30" as="geometry" />
        </mxCell>
        <mxCell id="wSfpsm_N3FbQUYPhxMbK-31" value="SemVer&lt;br&gt;Calculation" style="shape=step;perimeter=stepPerimeter;whiteSpace=wrap;html=1;fixedSize=1;" vertex="1" parent="1">
          <mxGeometry x="65" y="463.75" width="120" height="80" as="geometry" />
        </mxCell>
        <mxCell id="wSfpsm_N3FbQUYPhxMbK-32" value="Build &lt;br&gt;Helm Charts" style="shape=step;perimeter=stepPerimeter;whiteSpace=wrap;html=1;fixedSize=1;" vertex="1" parent="1">
          <mxGeometry x="185" y="463.75" width="120" height="80" as="geometry" />
        </mxCell>
        <mxCell id="wSfpsm_N3FbQUYPhxMbK-33" value="Build &lt;br&gt;Helm Charts" style="shape=step;perimeter=stepPerimeter;whiteSpace=wrap;html=1;fixedSize=1;" vertex="1" parent="1">
          <mxGeometry x="305" y="463.75" width="120" height="80" as="geometry" />
        </mxCell>
        <mxCell id="wSfpsm_N3FbQUYPhxMbK-34" value="SemVer&lt;br&gt;Repository&lt;br&gt;Tagging" style="shape=step;perimeter=stepPerimeter;whiteSpace=wrap;html=1;fixedSize=1;" vertex="1" parent="1">
          <mxGeometry x="425" y="463.75" width="120" height="80" as="geometry" />
        </mxCell>
        <mxCell id="wSfpsm_N3FbQUYPhxMbK-3" value="" style="rounded=0;whiteSpace=wrap;html=1;gradientColor=none;fillColor=none;dashed=1;" vertex="1" parent="1">
          <mxGeometry x="485" y="190" width="175" height="120" as="geometry" />
        </mxCell>
        <mxCell id="wSfpsm_N3FbQUYPhxMbK-5" value="FnV - 1.0.0" style="text;strokeColor=none;align=center;fillColor=none;html=1;verticalAlign=middle;whiteSpace=wrap;rounded=0;" vertex="1" parent="1">
          <mxGeometry x="450" y="160" width="120" height="30" as="geometry" />
        </mxCell>
        <mxCell id="wSfpsm_N3FbQUYPhxMbK-13" value="" style="group" vertex="1" connectable="0" parent="1">
          <mxGeometry x="510" y="200" width="120" height="95" as="geometry" />
        </mxCell>
        <mxCell id="wSfpsm_N3FbQUYPhxMbK-10" value="" style="shape=parallelogram;perimeter=parallelogramPerimeter;whiteSpace=wrap;html=1;fixedSize=1;" vertex="1" parent="wSfpsm_N3FbQUYPhxMbK-13">
          <mxGeometry width="120" height="90" as="geometry" />
        </mxCell>
        <mxCell id="wSfpsm_N3FbQUYPhxMbK-9" value="" style="shape=image;html=1;verticalAlign=top;verticalLabelPosition=bottom;labelBackgroundColor=#ffffff;imageAspect=0;aspect=fixed;image=https://cdn3.iconfinder.com/data/icons/travelling-icon-set/800/helm-128.png" vertex="1" parent="wSfpsm_N3FbQUYPhxMbK-13">
          <mxGeometry x="86.5" y="4" width="20" height="20" as="geometry" />
        </mxCell>
        <mxCell id="wSfpsm_N3FbQUYPhxMbK-11" value="&lt;font style=&quot;font-size: 10px;&quot;&gt;dependencies:&lt;br&gt;- uvs&lt;br&gt;- config server&lt;br&gt;- e4k&lt;/font&gt;" style="text;html=1;align=center;verticalAlign=middle;resizable=0;points=[];autosize=1;strokeColor=none;fillColor=none;" vertex="1" parent="wSfpsm_N3FbQUYPhxMbK-13">
          <mxGeometry x="16.5" y="25" width="90" height="70" as="geometry" />
        </mxCell>
        <mxCell id="wSfpsm_N3FbQUYPhxMbK-12" value="&lt;font style=&quot;font-size: 10px;&quot;&gt;name: fnv&lt;br&gt;version 1.0.0&lt;/font&gt;" style="text;html=1;align=center;verticalAlign=middle;resizable=0;points=[];autosize=1;strokeColor=none;fillColor=none;" vertex="1" parent="wSfpsm_N3FbQUYPhxMbK-13">
          <mxGeometry x="6.5" width="80" height="40" as="geometry" />
        </mxCell>
        <mxCell id="wSfpsm_N3FbQUYPhxMbK-28" style="edgeStyle=orthogonalEdgeStyle;rounded=0;orthogonalLoop=1;jettySize=auto;html=1;entryX=0;entryY=0.75;entryDx=0;entryDy=0;" edge="1" parent="1" source="wSfpsm_N3FbQUYPhxMbK-14" target="wSfpsm_N3FbQUYPhxMbK-10">
          <mxGeometry relative="1" as="geometry" />
        </mxCell>
        <mxCell id="wSfpsm_N3FbQUYPhxMbK-14" value="" style="rounded=0;whiteSpace=wrap;html=1;gradientColor=none;fillColor=none;dashed=1;" vertex="1" parent="1">
          <mxGeometry x="195" y="140" width="175" height="110" as="geometry" />
        </mxCell>
        <mxCell id="wSfpsm_N3FbQUYPhxMbK-17" value="" style="shape=parallelogram;perimeter=parallelogramPerimeter;whiteSpace=wrap;html=1;fixedSize=1;" vertex="1" parent="1">
          <mxGeometry x="220" y="150" width="120" height="90" as="geometry" />
        </mxCell>
        <mxCell id="wSfpsm_N3FbQUYPhxMbK-18" value="" style="shape=image;html=1;verticalAlign=top;verticalLabelPosition=bottom;labelBackgroundColor=#ffffff;imageAspect=0;aspect=fixed;image=https://cdn3.iconfinder.com/data/icons/travelling-icon-set/800/helm-128.png" vertex="1" parent="1">
          <mxGeometry x="306.5" y="154" width="20" height="20" as="geometry" />
        </mxCell>
        <mxCell id="wSfpsm_N3FbQUYPhxMbK-20" value="&lt;font style=&quot;font-size: 10px;&quot;&gt;name: uvs&lt;br&gt;version 0.0.1&lt;/font&gt;" style="text;html=1;align=center;verticalAlign=middle;resizable=0;points=[];autosize=1;strokeColor=none;fillColor=none;" vertex="1" parent="1">
          <mxGeometry x="226.5" y="150" width="80" height="40" as="geometry" />
        </mxCell>
        <mxCell id="wSfpsm_N3FbQUYPhxMbK-27" style="edgeStyle=orthogonalEdgeStyle;rounded=0;orthogonalLoop=1;jettySize=auto;html=1;entryX=0;entryY=0.75;entryDx=0;entryDy=0;" edge="1" parent="1" source="wSfpsm_N3FbQUYPhxMbK-21" target="wSfpsm_N3FbQUYPhxMbK-10">
          <mxGeometry relative="1" as="geometry" />
        </mxCell>
        <mxCell id="wSfpsm_N3FbQUYPhxMbK-21" value="" style="rounded=0;whiteSpace=wrap;html=1;gradientColor=none;fillColor=none;dashed=1;" vertex="1" parent="1">
          <mxGeometry x="195" y="290" width="175" height="110" as="geometry" />
        </mxCell>
        <mxCell id="wSfpsm_N3FbQUYPhxMbK-23" value="" style="shape=parallelogram;perimeter=parallelogramPerimeter;whiteSpace=wrap;html=1;fixedSize=1;" vertex="1" parent="1">
          <mxGeometry x="220" y="300" width="120" height="90" as="geometry" />
        </mxCell>
        <mxCell id="wSfpsm_N3FbQUYPhxMbK-24" value="" style="shape=image;html=1;verticalAlign=top;verticalLabelPosition=bottom;labelBackgroundColor=#ffffff;imageAspect=0;aspect=fixed;image=https://cdn3.iconfinder.com/data/icons/travelling-icon-set/800/helm-128.png" vertex="1" parent="1">
          <mxGeometry x="306.5" y="304" width="20" height="20" as="geometry" />
        </mxCell>
        <mxCell id="wSfpsm_N3FbQUYPhxMbK-25" value="&lt;font style=&quot;font-size: 10px;&quot;&gt;name: e4k&lt;br&gt;version 0.4.0&lt;/font&gt;" style="text;html=1;align=center;verticalAlign=middle;resizable=0;points=[];autosize=1;strokeColor=none;fillColor=none;" vertex="1" parent="1">
          <mxGeometry x="226.5" y="300" width="80" height="40" as="geometry" />
        </mxCell>
        <mxCell id="wSfpsm_N3FbQUYPhxMbK-37" value="configserver - 0.0.1" style="text;strokeColor=none;align=center;fillColor=none;html=1;verticalAlign=middle;whiteSpace=wrap;rounded=0;" vertex="1" parent="1">
          <mxGeometry x="195" y="-30" width="120" height="30" as="geometry" />
        </mxCell>
        <mxCell id="wSfpsm_N3FbQUYPhxMbK-41" style="edgeStyle=orthogonalEdgeStyle;rounded=0;orthogonalLoop=1;jettySize=auto;html=1;entryX=0;entryY=0.5;entryDx=0;entryDy=0;" edge="1" parent="1" source="wSfpsm_N3FbQUYPhxMbK-38" target="wSfpsm_N3FbQUYPhxMbK-14">
          <mxGeometry relative="1" as="geometry">
            <Array as="points">
              <mxPoint x="100" y="55" />
              <mxPoint x="100" y="195" />
            </Array>
          </mxGeometry>
        </mxCell>
        <mxCell id="wSfpsm_N3FbQUYPhxMbK-42" value="API Post" style="edgeLabel;html=1;align=center;verticalAlign=middle;resizable=0;points=[];" vertex="1" connectable="0" parent="wSfpsm_N3FbQUYPhxMbK-41">
          <mxGeometry x="-0.1135" y="-1" relative="1" as="geometry">
            <mxPoint as="offset" />
          </mxGeometry>
        </mxCell>
        <mxCell id="wSfpsm_N3FbQUYPhxMbK-44" style="edgeStyle=orthogonalEdgeStyle;rounded=0;orthogonalLoop=1;jettySize=auto;html=1;exitX=0.5;exitY=0;exitDx=0;exitDy=0;" edge="1" parent="1" source="wSfpsm_N3FbQUYPhxMbK-38" target="wSfpsm_N3FbQUYPhxMbK-43">
          <mxGeometry relative="1" as="geometry">
            <Array as="points">
              <mxPoint x="340" />
              <mxPoint x="340" y="-20" />
              <mxPoint x="372" y="-20" />
            </Array>
          </mxGeometry>
        </mxCell>
        <mxCell id="wSfpsm_N3FbQUYPhxMbK-46" style="edgeStyle=orthogonalEdgeStyle;rounded=0;orthogonalLoop=1;jettySize=auto;html=1;entryX=0;entryY=0.75;entryDx=0;entryDy=0;" edge="1" parent="1" source="wSfpsm_N3FbQUYPhxMbK-38" target="wSfpsm_N3FbQUYPhxMbK-10">
          <mxGeometry relative="1" as="geometry">
            <Array as="points">
              <mxPoint x="440" y="55" />
              <mxPoint x="440" y="266" />
            </Array>
          </mxGeometry>
        </mxCell>
        <mxCell id="wSfpsm_N3FbQUYPhxMbK-38" value="" style="rounded=0;whiteSpace=wrap;html=1;gradientColor=none;fillColor=none;dashed=1;" vertex="1" parent="1">
          <mxGeometry x="195" width="175" height="110" as="geometry" />
        </mxCell>
        <mxCell id="wSfpsm_N3FbQUYPhxMbK-39" value="" style="shape=parallelogram;perimeter=parallelogramPerimeter;whiteSpace=wrap;html=1;fixedSize=1;" vertex="1" parent="1">
          <mxGeometry x="220" y="10" width="120" height="90" as="geometry" />
        </mxCell>
        <mxCell id="wSfpsm_N3FbQUYPhxMbK-40" value="&lt;font style=&quot;font-size: 10px;&quot;&gt;name: configserver&lt;br&gt;version 0.0.1&lt;/font&gt;" style="text;html=1;align=center;verticalAlign=middle;resizable=0;points=[];autosize=1;strokeColor=none;fillColor=none;" vertex="1" parent="1">
          <mxGeometry x="230" y="10" width="110" height="40" as="geometry" />
        </mxCell>
        <mxCell id="wSfpsm_N3FbQUYPhxMbK-43" value="" style="image;aspect=fixed;perimeter=ellipsePerimeter;html=1;align=center;shadow=0;dashed=0;spacingTop=3;image=img/lib/active_directory/databases.svg;" vertex="1" parent="1">
          <mxGeometry x="379" y="-140" width="91.84" height="90" as="geometry" />
        </mxCell>
        <mxCell id="wSfpsm_N3FbQUYPhxMbK-45" value="" style="shape=image;html=1;verticalAlign=top;verticalLabelPosition=bottom;labelBackgroundColor=#ffffff;imageAspect=0;aspect=fixed;image=https://cdn4.iconfinder.com/data/icons/pink_moustache/68_68/8.png;imageBackground=#FF6666;" vertex="1" parent="1">
          <mxGeometry y="72" width="68" height="68" as="geometry" />
        </mxCell>
        <mxCell id="wSfpsm_N3FbQUYPhxMbK-47" value="Scope:&lt;br&gt;- configmap stored locally in the configserver, later extending that to external database" style="text;html=1;strokeColor=none;fillColor=none;align=center;verticalAlign=middle;whiteSpace=wrap;rounded=0;" vertex="1" parent="1">
          <mxGeometry x="185" y="-140" width="180" height="110" as="geometry" />
        </mxCell>
        <mxCell id="wSfpsm_N3FbQUYPhxMbK-49" value="UVS" style="rounded=0;whiteSpace=wrap;html=1;" vertex="1" parent="1">
          <mxGeometry x="-280" y="700" width="120" height="60" as="geometry" />
        </mxCell>
        <mxCell id="wSfpsm_N3FbQUYPhxMbK-71" style="edgeStyle=orthogonalEdgeStyle;rounded=0;orthogonalLoop=1;jettySize=auto;html=1;exitX=1;exitY=0.5;exitDx=0;exitDy=0;" edge="1" parent="1" source="wSfpsm_N3FbQUYPhxMbK-54">
          <mxGeometry relative="1" as="geometry">
            <mxPoint x="-30" y="800" as="targetPoint" />
          </mxGeometry>
        </mxCell>
        <mxCell id="wSfpsm_N3FbQUYPhxMbK-54" value="1.0.0" style="label;whiteSpace=wrap;html=1;image=img/clipart/Gear_128x128.png" vertex="1" parent="1">
          <mxGeometry x="-190" y="700" width="87.5" height="30" as="geometry" />
        </mxCell>
        <mxCell id="wSfpsm_N3FbQUYPhxMbK-56" value="" style="whiteSpace=wrap;html=1;aspect=fixed;" vertex="1" parent="1">
          <mxGeometry x="530" y="750" width="310" height="310" as="geometry" />
        </mxCell>
        <mxCell id="wSfpsm_N3FbQUYPhxMbK-57" value="FnV Repostiroy" style="text;html=1;align=center;verticalAlign=middle;resizable=0;points=[];autosize=1;strokeColor=none;fillColor=none;" vertex="1" parent="1">
          <mxGeometry x="550" y="760" width="110" height="30" as="geometry" />
        </mxCell>
        <mxCell id="wSfpsm_N3FbQUYPhxMbK-58" value="repostiroy: fNV&lt;br&gt;branch: feature/implementcicd&lt;br&gt;tag: 1*" style="text;html=1;align=center;verticalAlign=middle;resizable=0;points=[];autosize=1;strokeColor=none;fillColor=none;" vertex="1" parent="1">
          <mxGeometry x="530" y="780" width="180" height="60" as="geometry" />
        </mxCell>
        <mxCell id="wSfpsm_N3FbQUYPhxMbK-59" value="FnV" style="rounded=0;whiteSpace=wrap;html=1;" vertex="1" parent="1">
          <mxGeometry x="-26" y="770" width="120" height="60" as="geometry" />
        </mxCell>
        <mxCell id="wSfpsm_N3FbQUYPhxMbK-60" value="BROKER" style="rounded=0;whiteSpace=wrap;html=1;" vertex="1" parent="1">
          <mxGeometry x="-280" y="860" width="120" height="60" as="geometry" />
        </mxCell>
        <mxCell id="wSfpsm_N3FbQUYPhxMbK-61" value="ConfigController" style="rounded=0;whiteSpace=wrap;html=1;" vertex="1" parent="1">
          <mxGeometry x="-280" y="940" width="120" height="60" as="geometry" />
        </mxCell>
        <mxCell id="wSfpsm_N3FbQUYPhxMbK-62" value="1.0.0" style="label;whiteSpace=wrap;html=1;image=img/clipart/Gear_128x128.png" vertex="1" parent="1">
          <mxGeometry x="72.5" y="760" width="87.5" height="30" as="geometry" />
        </mxCell>
        <mxCell id="wSfpsm_N3FbQUYPhxMbK-68" style="edgeStyle=orthogonalEdgeStyle;rounded=0;orthogonalLoop=1;jettySize=auto;html=1;exitX=1;exitY=0.5;exitDx=0;exitDy=0;entryX=0;entryY=0.5;entryDx=0;entryDy=0;" edge="1" parent="1" source="wSfpsm_N3FbQUYPhxMbK-64" target="wSfpsm_N3FbQUYPhxMbK-59">
          <mxGeometry relative="1" as="geometry" />
        </mxCell>
        <mxCell id="wSfpsm_N3FbQUYPhxMbK-64" value="1.0.0" style="label;whiteSpace=wrap;html=1;image=img/clipart/Gear_128x128.png" vertex="1" parent="1">
          <mxGeometry x="-180" y="860" width="87.5" height="30" as="geometry" />
        </mxCell>
        <mxCell id="wSfpsm_N3FbQUYPhxMbK-69" style="edgeStyle=orthogonalEdgeStyle;rounded=0;orthogonalLoop=1;jettySize=auto;html=1;exitX=1;exitY=0.5;exitDx=0;exitDy=0;" edge="1" parent="1" source="wSfpsm_N3FbQUYPhxMbK-65">
          <mxGeometry relative="1" as="geometry">
            <mxPoint x="-30" y="800" as="targetPoint" />
          </mxGeometry>
        </mxCell>
        <mxCell id="wSfpsm_N3FbQUYPhxMbK-79" value="1.0.0" style="edgeLabel;html=1;align=center;verticalAlign=middle;resizable=0;points=[];" vertex="1" connectable="0" parent="wSfpsm_N3FbQUYPhxMbK-69">
          <mxGeometry x="0.0382" y="1" relative="1" as="geometry">
            <mxPoint as="offset" />
          </mxGeometry>
        </mxCell>
        <mxCell id="wSfpsm_N3FbQUYPhxMbK-65" value="1.0.0" style="label;whiteSpace=wrap;html=1;image=img/clipart/Gear_128x128.png" vertex="1" parent="1">
          <mxGeometry x="-180" y="940" width="87.5" height="30" as="geometry" />
        </mxCell>
        <mxCell id="wSfpsm_N3FbQUYPhxMbK-67" value="DevOps Project" style="text;html=1;align=center;verticalAlign=middle;resizable=0;points=[];autosize=1;strokeColor=none;fillColor=none;" vertex="1" parent="1">
          <mxGeometry x="-310" y="660" width="110" height="30" as="geometry" />
        </mxCell>
        <mxCell id="wSfpsm_N3FbQUYPhxMbK-72" value="Shared ADO Templates" style="rounded=0;whiteSpace=wrap;html=1;" vertex="1" parent="1">
          <mxGeometry x="-280" y="1030" width="190" height="150" as="geometry" />
        </mxCell>
        <mxCell id="wSfpsm_N3FbQUYPhxMbK-73" value="calculate_gitversion.yaml&lt;br&gt;tagging_gitversion.yaml&lt;br&gt;helm_creating_chart.yaml&lt;br&gt;helm_publish_chart_to_acr.yaml&lt;br&gt;" style="text;html=1;align=center;verticalAlign=middle;resizable=0;points=[];autosize=1;strokeColor=none;fillColor=none;" vertex="1" parent="1">
          <mxGeometry x="-285" y="1110" width="200" height="70" as="geometry" />
        </mxCell>
        <mxCell id="wSfpsm_N3FbQUYPhxMbK-74" value="pipeline.yaml" style="text;html=1;align=center;verticalAlign=middle;resizable=0;points=[];autosize=1;strokeColor=none;fillColor=none;" vertex="1" parent="1">
          <mxGeometry x="-265" y="740" width="90" height="30" as="geometry" />
        </mxCell>
        <mxCell id="wSfpsm_N3FbQUYPhxMbK-75" value="pipeline.yaml" style="text;html=1;align=center;verticalAlign=middle;resizable=0;points=[];autosize=1;strokeColor=none;fillColor=none;" vertex="1" parent="1">
          <mxGeometry x="-17.5" y="810" width="90" height="30" as="geometry" />
        </mxCell>
        <mxCell id="wSfpsm_N3FbQUYPhxMbK-76" value="pipeline.yaml" style="text;html=1;align=center;verticalAlign=middle;resizable=0;points=[];autosize=1;strokeColor=none;fillColor=none;" vertex="1" parent="1">
          <mxGeometry x="-270" y="890" width="90" height="30" as="geometry" />
        </mxCell>
        <mxCell id="wSfpsm_N3FbQUYPhxMbK-77" value="pipeline.yaml" style="text;html=1;align=center;verticalAlign=middle;resizable=0;points=[];autosize=1;strokeColor=none;fillColor=none;" vertex="1" parent="1">
          <mxGeometry x="-270" y="980" width="90" height="30" as="geometry" />
        </mxCell>
        <mxCell id="wSfpsm_N3FbQUYPhxMbK-78" value="Pipeline" style="text;html=1;align=center;verticalAlign=middle;resizable=0;points=[];autosize=1;strokeColor=none;fillColor=none;" vertex="1" parent="1">
          <mxGeometry x="530" y="720" width="70" height="30" as="geometry" />
        </mxCell>
      </root>
    </mxGraphModel>
  </diagram>
</mxfile>
